<?xml version="1.0" encoding="utf-8"?>
<!-- Generator: Adobe Illustrator 17.0.0, SVG Export Plug-In . SVG Version: 6.00 Build 0)  -->
<!DOCTYPE svg PUBLIC "-//W3C//DTD SVG 1.1//EN" "http://www.w3.org/Graphics/SVG/1.1/DTD/svg11.dtd">
<svg version="1.1" id="Layer_1" xmlns="http://www.w3.org/2000/svg" xmlns:xlink="http://www.w3.org/1999/xlink" x="0px" y="0px"
	 width="200px" height="210px" viewBox="0 0 200 210" enable-background="new 0 0 200 210" xml:space="preserve">
<g>
	<path fill="#233442" d="M200,197.755c0,6.763-5.611,12.245-12.533,12.245H12.533C5.611,210,0,204.518,0,197.755V22.245
		C0,15.482,5.611,10,12.533,10h174.935C194.389,10,200,15.482,200,22.245V197.755z"/>
	<path fill="#2C3E50" d="M200,187.755c0,6.763-5.611,12.245-12.533,12.245H12.533C5.611,200,0,194.518,0,187.755V12.245
		C0,5.482,5.611,0,12.533,0h174.935C194.389,0,200,5.482,200,12.245V187.755z"/>
	<g>
		<path fill="#233442" d="M149.736,63.111L114.14,27.514c-0.973-0.973-2.274-1.49-3.598-1.49c-0.654,0-1.315,0.127-1.944,0.387
			c-1.901,0.787-3.14,2.641-3.14,4.698v15.256H65.373c-2.808,0-5.085,2.277-5.085,5.085v30.512c0,2.808,2.277,5.085,5.085,5.085
			h40.085v15.256c0,2.057,1.239,3.911,3.14,4.698c0.629,0.261,1.29,0.387,1.944,0.387c1.325,0,2.625-0.516,3.598-1.489
			l35.596-35.597C151.723,68.316,151.723,65.096,149.736,63.111z"/>
		<path fill="#233442" d="M50.264,137.568l35.596-35.597c0.973-0.973,2.274-1.49,3.598-1.49c0.654,0,1.315,0.127,1.944,0.387
			c1.901,0.787,3.14,2.641,3.14,4.698v15.256h40.085c2.808,0,5.085,2.277,5.085,5.085v30.512c0,2.808-2.277,5.085-5.085,5.085
			H94.542v15.256c0,2.057-1.239,3.911-3.14,4.698c-0.629,0.261-1.29,0.387-1.944,0.387c-1.325,0-2.625-0.516-3.598-1.489
			L50.264,144.76C48.277,142.773,48.277,139.554,50.264,137.568z"/>
		<path fill="#53D9C7" d="M149.736,60.041L114.14,24.443c-0.973-0.973-2.274-1.49-3.598-1.49c-0.654,0-1.315,0.127-1.944,0.387
			c-1.901,0.787-3.14,2.641-3.14,4.698v15.256H65.373c-2.808,0-5.085,2.277-5.085,5.085v30.512c0,2.808,2.277,5.085,5.085,5.085
			h40.085v15.256c0,2.057,1.239,3.911,3.14,4.698c0.629,0.261,1.29,0.387,1.944,0.387c1.325,0,2.625-0.516,3.598-1.489
			l35.596-35.597C151.723,65.246,151.723,62.026,149.736,60.041z"/>
		<path fill="#53D9C7" d="M50.264,134.498L85.86,98.9c0.973-0.973,2.274-1.49,3.598-1.49c0.654,0,1.315,0.127,1.944,0.387
			c1.901,0.787,3.14,2.641,3.14,4.698v15.256h40.085c2.808,0,5.085,2.277,5.085,5.085v30.512c0,2.808-2.277,5.085-5.085,5.085
			H94.542v15.256c0,2.057-1.239,3.911-3.14,4.698c-0.629,0.261-1.29,0.387-1.944,0.387c-1.325,0-2.625-0.516-3.598-1.489
			L50.264,141.69C48.277,139.703,48.277,136.483,50.264,134.498z"/>
	</g>
</g>
</svg>
